<svg version="1.1" xmlns="http://www.w3.org/2000/svg" xmlns:xlink="http://www.w3.org/1999/xlink" width="27.25" height="19.5" viewBox="0,0,27.25,19.5"><g transform="translate(-226.375,-170.25)"><g data-paper-data="{&quot;isPaintingLayer&quot;:true}" fill-rule="nonzero" stroke-miterlimit="10" stroke-dasharray="" stroke-dashoffset="0" style="mix-blend-mode: normal"><path d="M244.45187,176.74861c-3.4512,1.35675 -2.86006,4.86448 -0.95625,5.19757c-1.15619,1.27552 -4.77373,1.19758 -7.38308,0.44924c-4.85483,-1.88724 -2.41789,-6.52586 -2.41789,-6.52586c0,0 2.69122,1.11474 7.58275,1.13775c0.85873,0.00403 1.53197,-0.04108 2.07216,-0.07423c0.66929,-0.04106 1.22003,-0.10161 2.68186,-0.47581" fill="#912141" stroke="#414042" stroke-width="1.04" stroke-linecap="round" stroke-linejoin="round"/><path d="M233.12157,178.35826c0,0 0.94191,-0.65683 3.14129,0.56182c2.71229,1.50298 0.64329,3.40796 0.64329,3.40796c0,0 -3.0506,-0.09237 -3.75475,-3.49104z" fill="#bf4d60" stroke="#414042" stroke-width="1.04" stroke-linecap="round" stroke-linejoin="round"/><path d="M226.375,189.75v-19.5h27.25v19.5z" fill="none" stroke="none" stroke-width="0" stroke-linecap="butt" stroke-linejoin="miter"/></g></g></svg>