<svg xmlns="http://www.w3.org/2000/svg" xmlns:xlink="http://www.w3.org/1999/xlink" version="1.1" width="84.44299621582032" height="60.03733749389649" viewBox="-0.28500000238418577 0.7970000743865967 84.44299621582032 60.03733749389649">
  
  <g id="Layer_2">
    <path id="ID0.8378296419978142" fill="#FAA51D" stroke="#231F20" stroke-width="1.2" d="M 43.209 9.906 C 41.669 9.763 38.459 9.59 36.691 9.675 C 31.963 9.9 27.467 11.603 27.467 11.603 L 14.449 3.107 L 16.684 22.013 C 17.33 21.231 6.129 34.817 13.205 46.237 C 20.285 57.663 35.438 62.755 54.193 59.029 C 72.948 55.3 77.422 44.498 76.179 38.783 C 74.937 33.069 67.857 30.96 67.857 30.96 C 67.857 30.96 67.767 26.48 64.529 20.99 C 62.603 17.722 56.181 12.949 56.181 12.949 L 53.322 1.397 L 45.87 8.601 L 43.209 9.906 Z"></path>
    <path id="ID0.14403711399063468" fill="#FFFFFF" d="M 66.92 30.816 L 64.438 28.752 L 55.323 31.413 C 55.323 31.413 55.323 34.832 50.956 35.78 C 46.586 36.731 39.745 33.503 39.745 33.503 L 31.96 36.92 C 31.96 36.92 23.523 37.848 23.221 43.001 C 22.548 54.454 36.6 59.229 41.925 59.533 C 44.83 59.7 50.16 59.195 54.202 58.392 C 71.954 55.158 76.753 44.473 75.512 38.757 C 74.27 33.043 67.534 31.561 67.534 31.561 L 66.92 30.816 Z" stroke-width="1"></path>
    <path id="ID0.629810287617147" fill="none" stroke="#231F20" stroke-width="1.2" d="M 1.173 41.905 C 1.173 41.905 5.28 42.279 7.147 42.173 C 9.012 42.066 12.639 41.586 12.639 41.586"></path>
    <path id="ID0.7175576081499457" fill="none" stroke="#231F20" stroke-width="1.2" d="M 72.156 36.421 C 72.156 36.421 76.705 35.678 79.015 34.872 C 81.73 33.93 83.558 32.327 83.558 32.327"></path>
    <path id="ID0.3892475846223533" fill="none" stroke="#231F20" stroke-width="1.2" d="M 12.837 37.659 C 12.837 37.659 10.453 35.882 6.72 34.229 C 2.586 32.398 0.315 31.926 0.315 31.926"></path>
    <path id="ID0.8568548122420907" fill="none" stroke="#231F20" stroke-width="1.2" d="M 72.617 42.372 C 72.617 42.372 75.343 43.476 78.15 43.757 C 80.92 44.033 82.796 43.867 82.796 43.867"></path>
    <path id="ID0.05325768515467644" fill="none" stroke="#000000" stroke-linecap="round" d="M 42.85 9.962 C 45.69 10.662 46.737 11.431 46.737 11.431" stroke-width="1"></path>
    <path id="ID0.23796036606654525" fill="none" stroke="#000000" d="M 24.398 9.434 L 30.456 13.792" stroke-width="1"></path>
  </g>
  <g id="Layer_5">
    <path id="ID0.1055336152203381" fill="#FFFFFF" stroke="#231F20" d="M 62.34 21.116 C 65.264 25.595 65.373 30.707 62.582 32.531 C 59.789 34.356 55.156 32.199 52.228 27.718 C 49.295 23.238 49.191 18.129 51.984 16.303 C 54.775 14.48 59.413 16.634 62.34 21.116 Z" stroke-width="1"></path>
    <path id="ID0.49767649360001087" fill="#231F20" d="M 61.589 28.272 C 61.589 29.352 60.787 30.228 59.789 30.228 C 58.796 30.228 57.986 29.351 57.986 28.272 C 57.986 27.192 58.796 26.314 59.789 26.314 C 60.787 26.314 61.589 27.192 61.589 28.272" stroke-width="1"></path>
  </g>
  <g id="Layer_7">
    <path id="ID0.050694821402430534" fill="#FFFFFF" stroke="#231F20" d="M 38.367 24.369 C 41.293 28.849 40.986 34.231 37.686 36.384 C 34.384 38.543 29.335 36.656 26.41 32.176 C 23.482 27.696 23.786 22.316 27.088 20.159 C 30.391 18.003 35.438 19.887 38.367 24.369 Z" stroke-width="1"></path>
    <path id="ID0.039064778946340084" fill="#231F20" d="M 36.579 30.257 C 36.579 31.338 35.776 32.214 34.778 32.214 C 33.786 32.214 32.975 31.336 32.975 30.257 C 32.975 29.177 33.786 28.3 34.778 28.3 C 35.774 28.3 36.579 29.177 36.579 30.257" stroke-width="1"></path>
  </g>
  <path id="ID0.5285850302316248" fill="#5E4A42" stroke="#000000" d="M 50.266 33.676 C 52.12 33.676 54.821 33.392 54.963 34.245 C 55.106 35.1 53.254 38.448 51.975 38.59 C 50.692 38.732 45.85 36.237 45.78 34.671 C 45.706 33.105 48.555 33.676 50.266 33.676 Z" stroke-width="1"></path>
  <g id="Layer_4">
    <path id="ID0.8242658851668239" fill="none" stroke="#231F20" stroke-width="1.2" d="M 37.274 40.985 C 37.274 40.985 47.621 44.039 51.491 44.882 C 55.359 45.724 62.342 46.566 62.342 46.566 C 62.342 46.566 54.352 56.811 45.014 54.21 C 35.676 51.613 35.845 45.725 37.274 40.985 Z"></path>
  </g>
</svg>