<svg xmlns="http://www.w3.org/2000/svg" xmlns:xlink="http://www.w3.org/1999/xlink" version="1.1" x="0px" y="0px" width="78.24199676513672" height="62.2869987487793" viewBox="-0.8769998550415039 1.380000114440918 78.24199676513672 62.2869987487793" xml:space="preserve">
  <defs></defs>
  <g>
    <path fill="#FFFFFF" stroke="#231F20" stroke-width="2" d="M47.452,35.307c5.598,0.714,10.357,2.176,13.57,4.324  c2.784,1.861,4.407,4.238,4.407,7.092c0,9.046-11.783,15.921-26.319,15.921c-14.535,0-26.318-7.25-26.318-15.921  c0-2.883,0.656-5.28,3.494-7.15c3.221-2.123,8.428-3.567,14.291-4.272c3.447,2.344,5.636,4.502,8.533,4.502  C42.026,39.802,44.074,38.394,47.452,35.307z"></path>
    <path id="Face_4_" fill="none" stroke="#231F20" stroke-width="2" d="M33.043,18.761L21.938,2.38l-6.235,23.599  C16.595,25.498,33.043,18.761,33.043,18.761z"></path>
    <path id="Face_3_" fill="none" stroke="#231F20" stroke-width="2" d="M62.044,25.979L55.809,2.38L44.703,18.761  C44.703,18.761,61.151,25.498,62.044,25.979z"></path>
    <path fill="none" stroke="#231F20" stroke-width="2" d="M67.811,38.736c0,14.1-12.85,23.931-28.699,23.931  s-28.699-9.831-28.699-23.931c0-14.102,12.85-26.532,28.699-26.532S67.811,24.635,67.811,38.736z"></path>
    <path id="Face_2_" fill="#FAA51D" d="M33.043,18.761L21.938,2.38l-6.235,23.599C16.595,25.498,33.043,18.761,33.043,18.761z" stroke-width="1"></path>
    <path id="Face_1_" fill="#FAA51D" d="M62.044,25.979L55.809,2.38L44.703,18.761C44.703,18.761,61.151,25.498,62.044,25.979z" stroke-width="1"></path>
    <path fill="#FAA51D" d="M67.811,38.736c0,14.1-12.85,23.931-28.699,23.931s-28.699-9.831-28.699-23.931  c0-14.102,12.85-26.532,28.699-26.532S67.811,24.635,67.811,38.736z" stroke-width="1"></path>
    <path fill="#FFFFFF" d="M47.452,35.307c5.598,0.714,10.357,2.176,13.57,4.324c2.784,1.861,4.407,4.238,4.407,7.092  c0,9.046-11.783,15.921-26.319,15.921c-14.535,0-26.318-7.25-26.318-15.921c0-2.883,0.656-5.28,3.494-7.15  c3.221-2.123,8.428-3.567,14.291-4.272c3.447,2.344,5.636,4.502,8.533,4.502C42.026,39.802,44.074,38.394,47.452,35.307z" stroke-width="1"></path>
    <path id="Left_Lower_Whisker_1_" fill="none" stroke="#231F20" stroke-width="1.2" d="M0.98,45.935c0,0,4.106,0.375,5.974,0.269  c1.865-0.106,5.492-0.587,5.492-0.587"></path>
    <path id="Right_Upper_Whisker_1_" fill="none" stroke="#231F20" stroke-width="1.2" d="M64.963,40.451c0,0,4.549-0.743,6.859-1.549  c2.715-0.942,4.543-2.545,4.543-2.545"></path>
    <path id="Left_Upper_Whisker_1_" fill="none" stroke="#231F20" stroke-width="1.2" d="M12.645,41.689c0,0-2.385-1.777-6.117-3.431  c-4.135-1.83-6.405-2.303-6.405-2.303"></path>
    <path id="Right_Lower_Whisker_1_" fill="none" stroke="#231F20" stroke-width="1.2" d="M65.424,46.402c0,0,2.727,1.104,5.533,1.385  c2.77,0.276,4.646,0.11,4.646,0.11"></path>
    <path id="Nose_1_" fill="#5E4A42" stroke="#000000" d="M43.499,38.678c0,1.458-3.222,4.151-4.6,4.151  c-1.289,0.006-4.522-2.359-4.593-3.925c-0.074-1.565,2.775-0.995,4.486-0.995C40.646,37.909,43.499,37.303,43.499,38.678z" stroke-width="1"></path>
    <ellipse fill="#FFFFFF" stroke="#231F20" cx="27.622" cy="29.757" rx="7.142" ry="9.688" stroke-width="1"></ellipse>
    <ellipse fill="#231F20" cx="27.622" cy="31.757" rx="1.828" ry="1.915" stroke-width="1"></ellipse>
    <ellipse fill="#FFFFFF" stroke="#231F20" cx="51.247" cy="29.757" rx="7.142" ry="9.688" stroke-width="1"></ellipse>
    <ellipse fill="#231F20" cx="51.247" cy="31.757" rx="1.828" ry="1.915" stroke-width="1"></ellipse>
    <path fill="none" stroke="#231F20" d="M39.111,48.751c3.376,0,13.467-0.894,13.467-0.894c0,6.617-6.029,10.981-13.467,10.981  c-7.437,0-13.466-4.364-13.466-10.981C25.646,47.857,35.736,48.751,39.111,48.751z" stroke-width="1"></path>
  </g>
</svg>