<svg version="1.1" xmlns="http://www.w3.org/2000/svg" xmlns:xlink="http://www.w3.org/1999/xlink" width="27.25" height="19.5" viewBox="0,0,27.25,19.5"><g transform="translate(-226.375,-170.25)"><g data-paper-data="{&quot;isPaintingLayer&quot;:true}" fill-rule="nonzero" stroke-miterlimit="10" stroke-dasharray="" stroke-dashoffset="0" style="mix-blend-mode: normal"><path d="M244.96741,176.74805c-4.27315,1.49028 -3.54123,5.34324 -1.184,5.70912c-1.43156,1.40105 -6.30748,1.1601 -8.54631,0.57113c-8.09423,-2.15065 -3.39054,-8.02255 -3.39054,-8.02255c0,0 3.13378,2.00119 9.19032,2.02645c2.38057,0.00993 3.90499,-0.24975 7.17584,-0.99254" fill="#b74e6c" stroke="#414042" stroke-width="1.04" stroke-linecap="round" stroke-linejoin="round"/><path d="M230.64104,179.13751c0,0 1.46385,-1.34286 4.18704,-0.00428c3.35825,1.65091 0.79651,3.74337 0.79651,3.74337c0,0 -4.27315,-0.72283 -5.14501,-3.75694z" fill="#ff6680" stroke="#414042" stroke-width="1.04" stroke-linecap="round" stroke-linejoin="round"/><path d="M226.375,189.75v-19.5h27.25v19.5z" fill="none" stroke="none" stroke-width="0" stroke-linecap="butt" stroke-linejoin="miter"/></g></g></svg>