<svg version="1.1" xmlns="http://www.w3.org/2000/svg" xmlns:xlink="http://www.w3.org/1999/xlink" width="27.25" height="19.5" viewBox="0,0,27.25,19.5"><g transform="translate(-226.375,-170.25)"><g data-paper-data="{&quot;isPaintingLayer&quot;:true}" fill-rule="nonzero" stroke-miterlimit="10" stroke-dasharray="" stroke-dashoffset="0" style="mix-blend-mode: normal"><path d="M232.08553,176.40917c11.41908,2.74789 15.80959,-0.99916 15.80959,-0.99916c0,0 4.63337,4.86792 -3.33984,6.65085c-2.20535,0.48827 -7.00836,0.68802 -8.41852,-0.47348c2.32198,-0.30331 2.83091,-3.55436 -1.30766,-4.64847" data-paper-data="{&quot;index&quot;:null}" fill="#b74e6c" stroke="#ff0000" stroke-width="1.04" stroke-linecap="round" stroke-linejoin="round"/><path d="M236.07218,181.84749c0.3493,-0.65352 0.3493,-0.90108 0.43361,-2.0893c1.43333,0.02971 3.75798,-0.06931 5.25154,-0.06931c2.91485,0 4.87815,-0.20793 7.54006,-0.30695c-2.01149,4.00036 -8.22662,4.10928 -13.22522,2.46557z" data-paper-data="{&quot;index&quot;:null}" fill="#ffffff" stroke="#414042" stroke-width="1.04" stroke-linecap="round" stroke-linejoin="round"/><g data-paper-data="{&quot;index&quot;:null}" fill="#ffffff" stroke="#414042" stroke-width="1.04" stroke-linecap="round" stroke-linejoin="round"><path d="M247.83995,175.29242c0,0 1.879,1.87146 1.45743,4.06968c-2.6619,0.11882 -4.61317,0.32676 -7.54006,0.32676c-1.49356,0 -3.81821,0.10893 -5.25154,0.07922c-0.30112,-1.0991 0.30617,-2.1605 -1.72941,-2.81402l-1.72913,-0.32531c11.2451,1.70674 14.3762,-0.95535 14.3762,-0.95535z"/><path d="M236.1901,177.18151c-2.26751,-0.15842 -2.39889,-0.46023 -4.1213,-0.8167z"/></g><path d="M226.375,189.75v-19.5h27.25v19.5z" fill="none" stroke="none" stroke-width="0" stroke-linecap="butt" stroke-linejoin="miter"/></g></g></svg>