<svg version="1.1" xmlns="http://www.w3.org/2000/svg" xmlns:xlink="http://www.w3.org/1999/xlink" width="27.25" height="19.5" viewBox="0,0,27.25,19.5"><g transform="translate(-226.375,-170.25)"><g data-paper-data="{&quot;isPaintingLayer&quot;:true}" fill-rule="nonzero" stroke-miterlimit="10" stroke-dasharray="" stroke-dashoffset="0" style="mix-blend-mode: normal"><path d="M248.36288,179.62772c-0.63318,-0.14899 -1.30362,-0.26072 -2.02371,-0.26072c-1.87472,0 -3.52597,0.58352 -4.6806,1.50226c-1.05531,-0.55869 -2.34651,-0.90632 -3.77428,-0.90632c-0.99324,0 -1.91198,0.17382 -2.74381,0.45937c-0.11174,-0.74492 0.66055,-3.50163 -1.48119,-3.64964c10.14763,2.09805 13.87176,-1.21719 13.87176,-1.21719c0,0 1.1298,1.51468 0.83183,4.07225z" data-paper-data="{&quot;index&quot;:null}" fill="#ffffff" stroke="#414042" stroke-width="1.04" stroke-linecap="round" stroke-linejoin="round"/><path d="M240.58492,181.89193c0.63318,-0.88149 1.66366,-1.58917 2.93003,-2.01129" data-paper-data="{&quot;index&quot;:null}" fill="#ffffff" stroke="#414042" stroke-width="1.04" stroke-linecap="round" stroke-linejoin="round"/><path d="M226.375,189.75v-19.5h27.25v19.5z" fill="none" stroke="none" stroke-width="0" stroke-linecap="butt" stroke-linejoin="miter"/></g></g></svg>