<svg version="1.1" xmlns="http://www.w3.org/2000/svg" xmlns:xlink="http://www.w3.org/1999/xlink" width="27.25" height="19.5" viewBox="0,0,27.25,19.5"><g transform="translate(-226.375,-170.25)"><g data-paper-data="{&quot;isPaintingLayer&quot;:true}" fill-rule="nonzero" stroke-miterlimit="10" stroke-dasharray="" stroke-dashoffset="0" style="mix-blend-mode: normal"><path d="M231.63712,179.62771c-0.29797,-2.55757 0.83183,-4.07225 0.83183,-4.07225c0,0 3.72413,3.31524 13.87176,1.21719c-2.14174,0.14801 -1.36945,2.90472 -1.48119,3.64964c-0.83183,-0.28555 -1.75057,-0.45937 -2.74381,-0.45937c-1.42777,0 -2.71897,0.34763 -3.77428,0.90632c-1.15463,-0.91874 -2.80588,-1.50226 -4.6806,-1.50226c-0.72009,0 -1.39053,0.11173 -2.02371,0.26072z" fill="#ffffff" stroke="#414042" stroke-width="1.04" stroke-linecap="round" stroke-linejoin="round"/><path d="M236.48506,179.88062c1.26637,0.42212 2.29685,1.1298 2.93003,2.01129" fill="#ffffff" stroke="#414042" stroke-width="1.04" stroke-linecap="round" stroke-linejoin="round"/><path d="M226.375,189.75v-19.5h27.25v19.5z" fill="none" stroke="none" stroke-width="0" stroke-linecap="butt" stroke-linejoin="miter"/></g></g></svg>