<svg version="1.1" xmlns="http://www.w3.org/2000/svg" xmlns:xlink="http://www.w3.org/1999/xlink" width="27.25" height="19.5" viewBox="0,0,27.25,19.5"><g transform="translate(-226.375,-170.25)"><g data-paper-data="{&quot;isPaintingLayer&quot;:true}" fill-rule="nonzero" stroke-miterlimit="10" stroke-dasharray="" stroke-dashoffset="0" style="mix-blend-mode: normal"><path d="M233.96858,176.45727c1.46183,0.3742 2.01257,0.43475 2.68186,0.47581c0.54019,0.03315 1.21343,0.07826 2.07216,0.07423c4.89153,-0.02301 7.58275,-1.13775 7.58275,-1.13775c0,0 2.43694,4.63862 -2.41789,6.52586c-2.60935,0.74834 -6.22689,0.82628 -7.38308,-0.44924c1.90381,-0.33309 2.49495,-3.84082 -0.95625,-5.19757" data-paper-data="{&quot;index&quot;:null}" fill="#912141" stroke="#414042" stroke-width="1.04" stroke-linecap="round" stroke-linejoin="round"/><path d="M246.8486,178.837c-0.70415,3.39867 -3.75475,3.49104 -3.75475,3.49104c0,0 -2.069,-1.90498 0.64329,-3.40796c2.19938,-1.21865 3.14129,-0.56182 3.14129,-0.56182z" data-paper-data="{&quot;index&quot;:null}" fill="#bf4d60" stroke="#414042" stroke-width="1.04" stroke-linecap="round" stroke-linejoin="round"/><path d="M226.375,189.75v-19.5h27.25v19.5z" fill="none" stroke="none" stroke-width="0" stroke-linecap="butt" stroke-linejoin="miter"/></g></g></svg>