<svg version="1.1" xmlns="http://www.w3.org/2000/svg" xmlns:xlink="http://www.w3.org/1999/xlink" width="27.25" height="19.5" viewBox="0,0,27.25,19.5"><g transform="translate(-226.375,-170.25)"><g data-paper-data="{&quot;isPaintingLayer&quot;:true}" fill-rule="nonzero" stroke-miterlimit="10" stroke-dasharray="" stroke-dashoffset="0" style="mix-blend-mode: normal"><path d="M231.7873,176.03967c3.27085,0.74279 4.79527,1.00247 7.17584,0.99254c6.05654,-0.02526 9.19032,-2.02645 9.19032,-2.02645c0,0 4.70369,5.8719 -3.39054,8.02255c-2.23883,0.58897 -7.11475,0.82992 -8.54631,-0.57113c2.35723,-0.36588 3.08915,-4.21884 -1.184,-5.70912" data-paper-data="{&quot;index&quot;:null}" fill="#b74e6c" stroke="#414042" stroke-width="1.04" stroke-linecap="round" stroke-linejoin="round"/><path d="M249.52044,179.11967c-0.87186,3.03411 -5.14501,3.75694 -5.14501,3.75694c0,0 -2.56174,-2.09246 0.79651,-3.74337c2.72319,-1.33858 4.18704,0.00428 4.18704,0.00428z" data-paper-data="{&quot;index&quot;:null}" fill="#ff6680" stroke="#414042" stroke-width="1.04" stroke-linecap="round" stroke-linejoin="round"/><path d="M226.375,189.75v-19.5h27.25v19.5z" fill="none" stroke="none" stroke-width="0" stroke-linecap="butt" stroke-linejoin="miter"/></g></g></svg>