<svg version="1.1" xmlns="http://www.w3.org/2000/svg" xmlns:xlink="http://www.w3.org/1999/xlink" width="27.25" height="19.5" viewBox="0,0,27.25,19.5"><g transform="translate(-226.375,-170.25)"><g data-paper-data="{&quot;isPaintingLayer&quot;:true}" fill-rule="nonzero" stroke-miterlimit="10" stroke-dasharray="" stroke-dashoffset="0" style="mix-blend-mode: normal"><path d="M245.1709,176.93891c-4.13857,1.09411 -3.62964,4.34516 -1.30766,4.64847c-1.41016,1.1615 -6.21317,0.96175 -8.41852,0.47348c-7.97321,-1.78293 -3.33984,-6.65085 -3.33984,-6.65085c0,0 4.39051,3.74705 15.80959,0.99916" fill="#b74e6c" stroke="#ff0000" stroke-width="1.04" stroke-linecap="round" stroke-linejoin="round"/><path d="M243.92783,181.8475c-4.9986,1.64371 -11.21373,1.53479 -13.22522,-2.46557c2.66191,0.09902 4.62521,0.30695 7.54006,0.30695c1.49356,0 3.81821,0.09902 5.25154,0.06931c0.08431,1.18822 0.08431,1.43578 0.43361,2.0893z" fill="#ffffff" stroke="#414042" stroke-width="1.04" stroke-linecap="round" stroke-linejoin="round"/><g fill="#ffffff" stroke="#414042" stroke-width="1.04" stroke-linecap="round" stroke-linejoin="round"><path d="M232.57656,175.6734c0,0 3.1311,2.66209 14.3762,0.95535l-1.72913,0.32531c-2.03558,0.65352 -1.42829,1.71492 -1.72941,2.81402c-1.43333,0.02971 -3.75798,-0.07922 -5.25154,-0.07922c-2.92689,0 -4.87816,-0.20794 -7.54006,-0.32676c-0.42157,-2.19822 1.45743,-4.06968 1.45743,-4.06968z"/><path d="M247.9312,176.36481c-1.72241,0.35647 -1.85379,0.65828 -4.1213,0.8167z"/></g><path d="M226.375,189.75v-19.5h27.25v19.5z" fill="none" stroke="none" stroke-width="0" stroke-linecap="butt" stroke-linejoin="miter"/></g></g></svg>